<?xml version="1.0" encoding="utf-8"?>
<!-- Generator: Adobe Illustrator 21.0.0, SVG Export Plug-In . SVG Version: 6.00 Build 0)  -->
<svg version="1.1" id="图层_1" xmlns="http://www.w3.org/2000/svg" xmlns:xlink="http://www.w3.org/1999/xlink" x="0px" y="0px"
	 viewBox="0 0 200 200" style="enable-background:new 0 0 200 200;" xml:space="preserve">
<style type="text/css">
	.st0{fill:#444444;}
</style>
<path class="st0" d="M145.5,140.4c-5.9-4.4-12.3-7.9-18.9-10.4c3.5-2.1,6.8-4.7,9.7-7.7c9.7-9.7,15.1-22.6,15.1-36.4
	c0-0.2,0-0.4,0-0.6c2.6-2,4.7-4.8,4.7-8.6V58.7l31.6-9L100,24.8L12.3,49.8l12.6,3.6c0,0,0,0,0,0.1v40.4c0,3.4,2.8,6.2,6.2,6.2
	s6.2-2.8,6.2-6.2V56.9l6.6,1.9v18.1c0,3.7,2.1,6.5,4.7,8.6c0,0.2,0,0.4,0,0.6c0,13.7,5.3,26.7,15.1,36.4c2.9,2.9,6.2,5.5,9.7,7.6
	c-6.7,2.5-13.1,6-19.1,10.4c-13,9.7-23,23.1-28.7,38.8c-1.2,3.2,0.5,6.8,3.7,7.9c3.2,1.2,6.8-0.5,7.9-3.7
	c4.9-13.4,13.3-24.9,24.4-33.1c11.3-8.4,24.5-12.8,38.3-12.8s27,4.4,38.3,12.8c11.1,8.2,19.5,19.7,24.4,33.1
	c0.9,2.5,3.3,4.1,5.8,4.1c0.7,0,1.4-0.1,2.1-0.4c3.2-1.2,4.9-4.7,3.7-7.9C168.5,163.5,158.6,150.1,145.5,140.4z M100,82.9
	c-2.7,0-5.3-0.1-7.8-0.1c-13.7-1.2-26.3-5.3-34.2-9.2c-0.6-0.3-1.1-0.5-1.8-0.6v-8.5l42,11.8c1.1,0.3,2.3,0.3,3.3,0l42-11.8V73
	c-0.6,0.1-1.2,0.3-1.8,0.6c-7.9,3.9-20.4,8-34.2,9.2C105.3,82.9,102.7,82.9,100,82.9z M100,37.7l42.4,12.1L100,61.8L57.6,49.7
	L100,37.7z M61.3,91c7.9,2.2,18.3,3.6,29.7,4.1c2.9,0.3,5.9,0.4,9,0.4c3.1,0,6.1-0.1,9-0.4c11.4-0.5,21.8-2,29.7-4.1
	c-2.5,19.1-18.9,34-38.7,34C80.2,125,63.8,110.2,61.3,91z"/>
</svg>
