<?xml version="1.0" encoding="utf-8"?>
<!-- Generator: Adobe Illustrator 21.0.0, SVG Export Plug-In . SVG Version: 6.00 Build 0)  -->
<svg version="1.1" id="图层_1" xmlns="http://www.w3.org/2000/svg" xmlns:xlink="http://www.w3.org/1999/xlink" x="0px" y="0px"
	 viewBox="0 0 200 200" style="enable-background:new 0 0 200 200;" xml:space="preserve">
<style type="text/css">
	.st0{fill:#444444;}
</style>
<path class="st0" d="M121.1,162.2l20-17.2l-5-5.6l15-14.4l13.9,15.6L150,155l-5-5.6l-17.8,19.4c-1.7,1.7-4.4,1.7-6.1,0
	C119.4,166.7,119.4,163.9,121.1,162.2L121.1,162.2z M152.8,157.2l15-15c1.1-1.1,2.8-1.1,3.9,0s1.1,2.8,0,3.9l-15,15
	c-1.1,1.1-2.8,1.1-3.9,0C151.7,160,151.7,158.3,152.8,157.2z M148.9,122.2l-15,15c-1.1,1.1-2.8,1.1-3.9,0s-1.1-2.8,0-3.9l15-15
	c1.1-1.1,2.8-1.1,3.9,0S150,121.1,148.9,122.2z"/>
<path class="st0" d="M141.7,194.4c-25.6,0-46.7-21.1-46.7-46.7s21.1-46.7,46.7-46.7s46.7,21.1,46.7,46.7S167.2,194.4,141.7,194.4z
	 M141.7,114.4c-18.3,0-33.3,15-33.3,33.3s15,33.3,33.3,33.3s33.3-15,33.3-33.3S160,114.4,141.7,114.4z M132.8,56.1H68.9
	c-2.2,0-3.9-1.7-3.9-3.9s1.7-3.9,3.9-3.9h63.3c2.2,0,3.9,1.7,3.9,3.9S134.4,56.1,132.8,56.1L132.8,56.1z M132.8,75.6h-80
	c-2.2,0-3.9-1.7-3.9-3.9s1.7-3.9,3.9-3.9h80c2.2,0,3.9,1.7,3.9,3.9S134.4,75.6,132.8,75.6L132.8,75.6z M135,16.1H47.8
	c-2.2,0-3.9-1.7-3.9-3.9s1.7-3.9,3.9-3.9H135c2.2,0,3.9,1.7,3.9,3.9S137.2,16.1,135,16.1z M114.4,94.4H52.8c-2.2,0-3.9-1.7-3.9-3.9
	s1.7-3.9,3.9-3.9h61.7c2.2,0,3.9,1.7,3.9,3.9S116.7,94.4,114.4,94.4z"/>
<path class="st0" d="M170.6,115h-12.2V82.2L145.6,75l6.1-11.1l13.9,7.8c3.3,1.7,5.6,5.6,5.6,9.4V115L170.6,115z M112.8,181.7H22.2
	c-6.1,0-10.6-5-10.6-11.1V81.1c0-3.9,2.2-7.8,5.6-9.4l14.4-7.8l6.7,11.7l-12.8,7.2v86.1h87.8v12.8L112.8,181.7z"/>
<path class="st0" d="M91.1,126.1c-1.1,0-2.8-0.6-3.9-1.1L18.9,86.7C16.1,85,15,82.8,15,79.4h7.2V80l68.9,38.3L160,80v-0.6h7.2
	c0,2.8-1.7,5.6-3.9,7.2L94.4,125C93.9,126.1,92.8,126.1,91.1,126.1z"/>
<path class="st0" d="M154.4,87.8V26.7c0-3.3-2.8-6.1-6.1-6.1H34.4c-3.3,0-6.1,2.8-6.1,6.1v61.7L40.6,95V32.8h101.1V95L154.4,87.8
	L154.4,87.8z"/>
</svg>
