<?xml version="1.0" encoding="utf-8"?>
<!-- Generator: Adobe Illustrator 21.0.0, SVG Export Plug-In . SVG Version: 6.00 Build 0)  -->
<svg version="1.1" id="图层_1" xmlns="http://www.w3.org/2000/svg" xmlns:xlink="http://www.w3.org/1999/xlink" x="0px" y="0px"
	 viewBox="0 0 200 200" style="enable-background:new 0 0 200 200;" xml:space="preserve">
<style type="text/css">
	.st0{fill:#FFFFFF;}
	.st1{fill:#444444;}
</style>
<path class="st0" d="M0,0h200v200H0V0z"/>
<path class="st1" d="M178.5,170h-157C15,170,10,165,10,159V41c0-6,5-11,11.5-11h157c6.5,0,11.5,5,11.5,11v117.5
	C190,165,185,170,178.5,170L178.5,170z M181,43c0-2-2-4-4-4H23c-2.5,0-4,2-4,4v114c0,2,2,4,4,4h153.5c2.5,0,4-2,4-4V43H181z
	 M109,97.5h58.5v9H109V97.5z M109,66h58.5v9H109V66z M167.5,138.5h-135v-9h135V138.5z"/>
<path class="st1" d="M64.5,50L25,78h5.5v36.5H60v-18h7.5v18h30V78h7.5L64.5,50z"/>
</svg>
