<?xml version="1.0" encoding="utf-8"?>
<!-- Generator: Adobe Illustrator 21.0.0, SVG Export Plug-In . SVG Version: 6.00 Build 0)  -->
<svg version="1.1" id="图层_1" xmlns="http://www.w3.org/2000/svg" xmlns:xlink="http://www.w3.org/1999/xlink" x="0px" y="0px"
	 viewBox="0 0 200 200" style="enable-background:new 0 0 200 200;" xml:space="preserve">
<style type="text/css">
	.st0{fill:#D10100;}
</style>
<path class="st0" d="M177.6,114.3c1.2-12.5-0.5-25.4-5.4-37.1c-4.5-11-11.3-21-20.2-28.9c-4.9-4.4-10.4-8.3-16.2-11.4
	c-2.1-1.1-5-0.6-6.2,1.6c-1.1,2.1-0.6,5,1.6,6.2c2.4,1.3,4.8,2.7,7.1,4.2c1.1,0.8,2.2,1.5,3.3,2.3c0.1,0.1,0.3,0.3,0.4,0.3
	c-0.1,0-0.8-0.7-0.3-0.2c0.3,0.2,0.5,0.4,0.8,0.6c0.5,0.4,1.1,0.9,1.6,1.3c2.1,1.8,4.1,3.7,5.9,5.7c0.9,1,1.8,2,2.7,3
	c0.4,0.5,0.8,1,1.2,1.5c0.2,0.2,1,1.3,0.2,0.2c0.2,0.3,0.4,0.6,0.7,0.9c3.3,4.4,6,9.1,8.3,14.1c0.1,0.3,0.3,0.6,0.4,0.9
	c0.3,0.7-0.1-0.2-0.1-0.3c0,0.2,0.2,0.4,0.2,0.5c0.3,0.7,0.5,1.3,0.8,2c0.5,1.3,0.9,2.6,1.3,3.9c0.8,2.7,1.5,5.4,2.1,8.2
	c0.2,0.8,0.3,1.6,0.4,2.4c0.1,0.4,0,0.8,0.2,1.2c0,0-0.1-1-0.1-0.5c0,0.2,0.1,0.5,0.1,0.7c0.2,1.6,0.3,3.2,0.4,4.8
	c0.2,3.9,0.1,7.8-0.3,11.6c-0.2,2.3,2.2,4.6,4.5,4.5C175.7,118.7,177.3,116.9,177.6,114.3L177.6,114.3z"/>
<path class="st0" d="M173.1,118.8c2.3,0,4.6-2.1,4.5-4.5c-0.1-2.4-2-4.5-4.5-4.5c-2.3,0-4.6,2.1-4.5,4.5
	C168.7,116.8,170.6,118.8,173.1,118.8z M135,176.3c2.3,0,4.6-2.1,4.5-4.5c-0.1-2.4-2-4.5-4.5-4.5c-2.3,0-4.6,2.1-4.5,4.5
	C130.6,174.3,132.5,176.3,135,176.3z"/>
<path class="st0" d="M59.6,175.6c18.4,10.7,40.8,13.5,61.2,7.7c5.7-1.6,11.3-3.9,16.5-6.8c2.1-1.1,2.9-4.1,1.6-6.2
	c-1.3-2.1-3.9-2.8-6.2-1.6c-2.1,1.2-4.3,2.4-6.6,3.2c1.2-0.4-0.5,0.2-0.8,0.3c-0.5,0.2-1,0.4-1.6,0.6c-1.2,0.4-2.4,0.9-3.7,1.2
	c-2.3,0.7-4.7,1.3-7.1,1.8c-1.2,0.2-2.3,0.4-3.5,0.6c-0.3,0-0.6,0.1-0.9,0.1c-1.2,0.2,1-0.1-0.2,0c-0.7,0.1-1.4,0.2-2.1,0.2
	c-5,0.5-10,0.5-15,0c-0.6-0.1-1.1-0.1-1.7-0.2c-1.2-0.1,1,0.2-0.2,0c-0.2,0-0.4-0.1-0.7-0.1c-1.3-0.2-2.6-0.4-3.8-0.7
	c-2.4-0.5-4.7-1.1-7-1.8c-1.3-0.4-2.5-0.8-3.8-1.3c-0.6-0.2-1.2-0.5-1.9-0.7c-0.2-0.1-1.3-0.5-0.2-0.1c-0.3-0.1-0.6-0.3-0.9-0.4
	c-2.5-1.1-5-2.4-7.3-3.8c-2-1.2-5-0.5-6.2,1.6C56.8,171.6,57.4,174.4,59.6,175.6L59.6,175.6z M62.2,37.2
	c-10.6,5.6-19.7,13.7-26.8,23.3c-7,9.5-11.8,20.8-13.8,32.4c-1.3,7.6-1.6,15.4-0.7,23c0.2,1.2,0.4,2.3,1.3,3.2
	c0.8,0.8,2.1,1.4,3.2,1.3c2.2-0.1,4.8-2,4.5-4.5c-0.4-3.6-0.6-7.1-0.5-10.7c0-1.4,0.1-2.9,0.2-4.3c0.1-0.7,0.1-1.5,0.2-2.2
	c0-0.3,0.1-0.7,0.1-1c0-0.1,0-0.3,0.1-0.4c0.1-1-0.1,0.8,0,0.2c0.9-5.7,2.2-11.2,4.3-16.5c0.1-0.3,0.2-0.6,0.4-0.9
	c0.1-0.2,0.1-0.4,0.2-0.5c0.2-0.5-0.2,0.4-0.2,0.4c0.3-0.7,0.6-1.4,0.9-2.1c0.6-1.3,1.2-2.5,1.9-3.8c1.3-2.4,2.7-4.8,4.3-7.1
	c0.4-0.5,0.7-1.1,1.1-1.6c0.2-0.3,0.4-0.5,0.6-0.8c0.1-0.2,0.2-0.3,0.3-0.4c0.5-0.6-0.4,0.6-0.1,0.1c0.8-1.1,1.7-2.1,2.6-3.1
	c1.8-2.1,3.8-4.1,5.8-6c1.1-1,2.3-2,3.5-3c0.3-0.3,0.6-0.5,1-0.8c0.1-0.1,0.5-0.4,0,0c-0.6,0.5,0.1-0.1,0.2-0.2
	c0.6-0.4,1.2-0.9,1.8-1.3c2.6-1.8,5.3-3.5,8.1-5c2.1-1.1,2.9-4.2,1.6-6.2C67,36.7,64.4,36,62.2,37.2z M121.8,34.5
	c-0.1-9.6-6.2-18-15.2-21.4c-8.6-3.2-19-0.3-24.8,6.8c-3.1,3.8-4.9,8.3-5.3,13.2c-0.3,4.5,0.8,9.1,3.1,12.9c2.2,3.8,5.7,7,9.7,8.8
	c4.6,2.1,9.5,2.7,14.4,1.7C114.3,54.6,121.7,45,121.8,34.5c0-2.3-2.1-4.6-4.5-4.5c-2.4,0.1-4.5,2-4.5,4.5c0,0.4,0,0.9-0.1,1.4
	c0,0.2,0,0.4-0.1,0.7c-0.1,0.6,0.2-1.2,0-0.3c-0.2,0.9-0.4,1.7-0.6,2.6c-0.1,0.4-0.4,0.8-0.4,1.2c0.2-1,0.2-0.6,0-0.1l-0.2,0.5
	c-0.4,0.8-0.9,1.6-1.4,2.3c-0.2,0.3-0.6,0.6,0.2-0.2c-0.1,0.1-0.2,0.3-0.3,0.4c-0.3,0.3-0.6,0.6-0.9,1c-0.3,0.3-0.6,0.6-0.9,0.9
	c-0.1,0.1-0.3,0.2-0.4,0.3c-0.1,0.1-1,0.8-0.4,0.3c0.6-0.5-0.4,0.3-0.6,0.4c-0.4,0.2-0.7,0.4-1.1,0.7c-0.4,0.2-0.8,0.4-1.2,0.6
	c-0.1,0.1-0.9,0.4-0.2,0.1c0.8-0.3-0.3,0.1-0.4,0.2c-0.7,0.3-1.5,0.5-2.3,0.6c-0.3,0.1-0.5,0.1-0.8,0.2c-0.4,0.1-0.6-0.1,0.4,0
	c-0.5,0-1.1,0.1-1.6,0.1c-0.8,0-1.6,0-2.5-0.1c-1-0.1,1.1,0.2,0.1,0C97.2,48,97,48,96.9,48c-0.5-0.1-1-0.2-1.5-0.4
	c-0.4-0.1-0.7-0.2-1.1-0.4C94,47.2,93.8,47,93.6,47c1,0.2,0.6,0.3,0.2,0.1c-0.8-0.4-1.6-0.8-2.4-1.3c-0.4-0.2-1.3-1.2-0.3-0.2
	c-0.3-0.3-0.6-0.5-0.9-0.7c-0.7-0.6-1.3-1.2-1.9-1.9c-0.1-0.1-0.2-0.3-0.3-0.4c0.9,0.9,0.3,0.4,0.1,0.1s-0.4-0.6-0.6-1
	s-0.4-0.7-0.6-1l-0.4-0.7c-0.2-0.4-0.2-1,0,0.1c-0.2-0.8-0.6-1.7-0.8-2.5c-0.1-0.4-0.2-0.8-0.2-1.2c-0.1-0.4,0-1,0,0.3
	c0-0.3-0.1-0.5-0.1-0.8c-0.1-0.9-0.1-1.8,0-2.7c0-0.2,0-0.4,0-0.5c0.1-0.9-0.2,0.9,0,0.3c0.1-0.5,0.2-1,0.3-1.4
	c0.2-0.8,0.6-1.7,0.8-2.5c-0.2,0.9-0.3,0.7-0.2,0.4c0.1-0.2,0.2-0.5,0.3-0.7c0.2-0.4,0.4-0.8,0.6-1.1s0.4-0.7,0.7-1.1
	c0.1-0.1,0.6-0.8,0.1-0.2c-0.5,0.6,0-0.1,0.1-0.2c0.5-0.7,1.1-1.3,1.8-1.8c0.3-0.3,0.7-0.5,1-0.8c-1,1,0,0,0.3-0.2
	c0.7-0.5,1.5-0.9,2.2-1.2c0.4-0.2,0.9-0.1-0.1,0c0.2,0,0.3-0.1,0.5-0.2c0.4-0.2,0.8-0.3,1.2-0.4c0.4-0.1,0.9-0.2,1.3-0.3
	c0.2,0,0.4-0.1,0.5-0.1c0.2,0,0.4-0.1,0.5-0.1C97,21,96.8,21,97.2,20.9c0.9-0.1,1.7-0.1,2.6-0.1c0.4,0,0.9,0.1,1.3,0.1
	c0.8,0.1-0.3,0-0.4-0.1c0.3,0.1,0.6,0.1,0.9,0.2c1,0.2,1.9,0.5,2.9,0.8c0.3,0.1,0.5,0.4-0.4-0.2c0.3,0.2,0.5,0.3,0.8,0.4
	c0.4,0.2,0.8,0.4,1.3,0.7c0.4,0.3,0.9,0.6,1.3,0.8c0.3,0.2,0.5,0.5-0.3-0.2c0.2,0.2,0.4,0.3,0.6,0.5c0.7,0.6,1.4,1.3,2.1,2.1
	c0.1,0.2,0.3,0.4,0.4,0.5c-0.8-0.8-0.3-0.4-0.1-0.1c0.3,0.4,0.6,0.9,0.8,1.3c0.2,0.4,0.4,0.7,0.6,1.1c0.1,0.2,0.2,0.5,0.3,0.7
	c-0.6-1-0.2-0.5-0.1-0.1c0.3,0.9,0.6,1.8,0.8,2.8c0,0.2,0.1,0.6,0.1,0.8c0-0.2-0.1-0.4-0.1-0.7l0.1,0.5c0,0.5,0.1,1.1,0.1,1.6
	c0,2.3,2.1,4.6,4.5,4.5C119.7,38.9,121.8,37,121.8,34.5L121.8,34.5z"/>
<path class="st0" d="M67.9,129.5v-11.7V95.4c0-4.6,0-9.1,0-13.7c0-0.3,0-0.5,0-0.8c0-0.2,0-0.4,0-0.5c0-0.5-0.1,0.6-0.1,0.5
	c0.1-0.3,0.1-0.7,0.2-1c0.1-0.3,0.2-0.6,0.3-0.9c0-0.1,0.1-0.3,0.1-0.4c0.3-0.7-0.4,0.7-0.1,0.2c0.3-0.5,0.6-1.1,0.9-1.6
	c0.5-0.9-0.5,0.5,0,0c0.3-0.3,0.5-0.6,0.8-0.8c0.2-0.2,0.4-0.4,0.6-0.6c0.5-0.5-0.9,0.6,0,0c0.5-0.4,1.1-0.7,1.7-1
	C73,74.5,72,75,72,75c0.1,0,0.4-0.1,0.5-0.2c0.3-0.1,0.6-0.2,0.9-0.3c0.3-0.1,0.7-0.1,0.9-0.2c0,0-1,0.1-0.5,0.1
	c0.2,0,0.4,0,0.7-0.1c0.3,0,0.5,0,0.8,0h30.7c0.4,0,0.9,0.1,1.3,0.1c-0.1,0-1.1-0.2-0.4,0c0.1,0,0.3,0.1,0.4,0.1
	c0.3,0.1,0.7,0.2,1,0.3c0.2,0.1,0.3,0.1,0.5,0.2c0.4,0.1-0.5-0.2-0.5-0.2c0.2,0.2,0.6,0.3,0.9,0.4c0.3,0.1,0.5,0.3,0.8,0.5
	c0.1,0.1,0.2,0.1,0.3,0.2c0.7,0.5-0.5-0.5-0.2-0.2c0.4,0.4,0.9,0.8,1.3,1.2c0.1,0.1,0.2,0.3,0.3,0.4c0.3,0.3-0.3-0.4-0.3-0.4
	c0.1,0.3,0.5,0.7,0.6,1c0.2,0.3,0.3,0.5,0.4,0.8c0.4,0.7-0.3-0.9,0,0c0.2,0.6,0.4,1.2,0.5,1.9c0.2,0.7-0.1-0.3,0-0.4
	c0,0.1,0,0.4,0.1,0.5c0,0.3,0,0.5,0,0.8v62.9c0,2.3,2.1,4.6,4.5,4.5c2.4-0.1,4.5-2,4.5-4.5v-9.9v-21.7V91.1c0-3.4,0.1-6.8,0-10.1
	c-0.3-6.9-4.9-13-11.5-15c-2.5-0.7-5-0.6-7.6-0.6H75c-5.8,0-11.3,3.2-14.1,8.3c-2.6,4.9-2,10.7-2,16v39.8c0,2.3,2.1,4.6,4.5,4.5
	C65.8,133.9,67.9,132,67.9,129.5z"/>
<path class="st0" d="M123.5,92.5c2.7,0,5.4-0.1,8.1,0h0.2c0.7,0-0.4,0-0.5-0.1c0.1,0,0.4,0.1,0.4,0.1c0.4,0.1,0.4,0.4-0.4-0.2
	c0.2,0.1,0.5,0.3,0.7,0.4c0.5,0.2-0.7-0.7-0.3-0.3c0.1,0.2,0.3,0.3,0.4,0.4c0.1,0.1,0.3,0.4,0.3,0.4c0,0-0.5-0.8-0.3-0.4
	c0.2,0.3,0.4,0.6,0.5,0.9l0.2,0.4c0.4,0.7-0.2-0.3-0.1-0.3c-0.1,0.1,0.3,1.1,0.4,1.2c0,0.1,0,0.3,0.1,0.4c-0.3-0.6-0.1-0.8,0-0.3
	c0,0.3,0,0.6,0,0.9v28.4c0,2.3,2.1,4.6,4.5,4.5c2.4-0.1,4.5-2,4.5-4.5v-18v-9.4c0-1.3-0.1-2.7-0.3-4c-0.6-3.5-2.9-7.1-6.3-8.5
	c-2.4-1.1-4.7-1-7.2-1h-5c-2.3,0-4.6,2.1-4.5,4.5C119.1,90.5,120.9,92.5,123.5,92.5L123.5,92.5z M80.8,97.9h17.5
	c2.2,0,4.3-1.9,4.2-4.2s-1.8-4.2-4.2-4.2H80.8c-2.2,0-4.3,1.9-4.2,4.2C76.7,96,78.4,97.9,80.8,97.9z M81.2,116.9h17.5
	c2.2,0,4.3-1.9,4.2-4.2c-0.1-2.3-1.8-4.2-4.2-4.2H81.2c-2.2,0-4.3,1.9-4.2,4.2C77.1,115,78.8,116.9,81.2,116.9z M65.2,148.9h60.4
	c2.8,0,5.6,0.1,8.4,0h0.1c2.3,0,4.6-2.1,4.5-4.5c-0.1-2.4-2-4.5-4.5-4.5H73.7c-2.8,0-5.6-0.1-8.4,0h-0.1c-2.3,0-4.6,2.1-4.5,4.5
	C60.8,146.9,62.7,148.9,65.2,148.9z"/>
<path class="st0" d="M58.3,147.6c-0.1-9.6-6.2-18-15.2-21.4c-8.6-3.2-19-0.3-24.8,6.8c-3.1,3.8-4.9,8.3-5.3,13.2
	c-0.3,4.5,0.8,9.1,3.1,12.9c2.2,3.8,5.7,7,9.7,8.8c4.6,2.1,9.5,2.7,14.5,1.7C50.7,167.7,58.2,158,58.3,147.6c0-2.3-2.1-4.6-4.5-4.5
	c-2.4,0.1-4.5,2-4.5,4.5c0,0.4,0,0.9-0.1,1.4c0,0.2,0,0.4-0.1,0.7c-0.1,0.6,0.2-1.2,0-0.3c-0.2,0.9-0.4,1.7-0.6,2.6
	c-0.1,0.4-0.4,0.8-0.4,1.2c0.2-1,0.2-0.6,0-0.1l-0.2,0.5c-0.4,0.8-0.9,1.6-1.4,2.3c-0.2,0.3-0.6,0.6,0.2-0.2
	c-0.1,0.1-0.2,0.3-0.3,0.4c-0.3,0.3-0.6,0.6-0.9,1s-0.6,0.6-0.9,0.9c-0.1,0.1-0.3,0.2-0.4,0.3c-0.1,0.1-1,0.8-0.4,0.3
	c0.6-0.5-0.4,0.3-0.6,0.4c-0.4,0.2-0.7,0.4-1.1,0.7c-0.4,0.2-0.8,0.4-1.2,0.6c-0.1,0.1-0.9,0.4-0.2,0.1c0.8-0.3-0.3,0.1-0.4,0.2
	c-0.7,0.3-1.5,0.5-2.3,0.6c-0.3,0.1-0.5,0.1-0.8,0.2c-0.4,0.1-0.6-0.1,0.4,0c-0.5,0-1.1,0.1-1.6,0.1c-0.8,0-1.6,0-2.5-0.1
	c-1-0.1,1.1,0.2,0.1,0c-0.2,0-0.4-0.1-0.5-0.1c-0.5-0.1-1-0.2-1.5-0.4c-0.4-0.1-0.7-0.2-1.1-0.4c-0.2-0.1-0.4-0.2-0.6-0.2
	c1,0.2,0.6,0.3,0.2,0.1c-0.8-0.4-1.6-0.8-2.4-1.3c-0.4-0.2-1.3-1.2-0.3-0.2c-0.3-0.3-0.6-0.5-0.9-0.7c-0.7-0.6-1.3-1.2-1.9-1.9
	c-0.1-0.1-0.2-0.3-0.3-0.4c0.9,0.9,0.3,0.4,0.1,0.1s-0.4-0.6-0.6-1s-0.4-0.7-0.6-1l-0.4-0.7c-0.2-0.4-0.2-1,0,0.1
	c-0.2-0.8-0.6-1.7-0.8-2.5c-0.1-0.4-0.2-0.8-0.2-1.2c-0.1-0.4,0-1,0,0.3c0-0.3-0.1-0.5-0.1-0.8c-0.1-0.9-0.1-1.8,0-2.7
	c0-0.2,0-0.4,0-0.5c0.1-0.9-0.2,0.9,0,0.3c0.1-0.5,0.2-1,0.3-1.4c0.2-0.8,0.6-1.7,0.8-2.5c-0.2,0.9-0.3,0.7-0.2,0.4
	c0.1-0.2,0.2-0.5,0.3-0.7c0.2-0.4,0.4-0.8,0.6-1.1c0.2-0.4,0.4-0.7,0.7-1.1c0.1-0.1,0.6-0.8,0.1-0.2s0-0.1,0.1-0.2
	c0.5-0.7,1.1-1.3,1.8-1.8c0.3-0.3,0.7-0.5,1-0.8c-1,1,0,0,0.3-0.2c0.7-0.5,1.5-0.9,2.2-1.2c0.4-0.2,0.9-0.1-0.1,0
	c0.2,0,0.3-0.1,0.5-0.2c0.4-0.2,0.8-0.3,1.2-0.4s0.9-0.2,1.3-0.3c0.2,0,0.4-0.1,0.5-0.1c0.2,0,0.4-0.1,0.5-0.1
	c-0.7,0.1-0.9,0.1-0.5,0.1c0.9-0.1,1.7-0.1,2.6-0.1c0.4,0,0.9,0.1,1.3,0.1c0.8,0.1-0.3,0-0.4-0.1c0.3,0.1,0.6,0.1,0.9,0.2
	c1,0.2,1.9,0.5,2.9,0.8c0.3,0.1,0.5,0.4-0.4-0.2c0.3,0.2,0.5,0.3,0.8,0.4c0.4,0.2,0.8,0.4,1.2,0.7c0.4,0.3,0.9,0.6,1.3,0.8
	c0.3,0.2,0.5,0.5-0.3-0.2c0.2,0.2,0.4,0.3,0.6,0.5c0.7,0.6,1.4,1.3,2.1,2.1c0.1,0.2,0.3,0.4,0.4,0.5c-0.8-0.8-0.3-0.4-0.1-0.1
	c0.3,0.4,0.6,0.9,0.8,1.3c0.2,0.4,0.4,0.7,0.6,1.1c0.1,0.2,0.2,0.5,0.3,0.7c-0.6-1-0.2-0.5-0.1-0.1c0.3,0.9,0.6,1.8,0.8,2.8
	c0,0.2,0.1,0.6,0.1,0.8c0-0.2-0.1-0.4-0.1-0.7l0.1,0.5c0,0.5,0.1,1.1,0.1,1.6c0,2.3,2.1,4.6,4.5,4.5
	C56.2,151.9,58.3,150.1,58.3,147.6L58.3,147.6z M187.4,147.1c-0.1-9.6-6.2-18-15.2-21.4c-8.6-3.2-19-0.3-24.8,6.8
	c-3.1,3.8-4.9,8.3-5.3,13.2c-0.3,4.5,0.8,9.1,3.1,12.9c2.2,3.8,5.7,7,9.7,8.8c4.6,2.1,9.5,2.7,14.4,1.7
	C179.9,167.2,187.3,157.5,187.4,147.1c0-2.3-2.1-4.6-4.5-4.5c-2.4,0.1-4.5,2-4.5,4.5c0,0.4,0,0.9-0.1,1.4c0,0.2,0,0.4-0.1,0.7
	c-0.1,0.6,0.2-1.2,0-0.3c-0.2,0.9-0.4,1.7-0.6,2.6c-0.1,0.4-0.4,0.8-0.4,1.2c0.2-1,0.2-0.6,0-0.1l-0.2,0.5c-0.4,0.8-0.9,1.6-1.4,2.3
	c-0.2,0.3-0.6,0.6,0.2-0.2c-0.1,0.1-0.2,0.3-0.3,0.4c-0.3,0.3-0.6,0.6-0.9,1c-0.3,0.3-0.6,0.6-0.9,0.9c-0.1,0.1-0.3,0.2-0.4,0.3
	c-0.1,0.1-1,0.8-0.4,0.3c0.6-0.5-0.4,0.3-0.6,0.4c-0.4,0.2-0.7,0.4-1.1,0.7c-0.4,0.2-0.8,0.4-1.2,0.6c-0.1,0.1-0.9,0.4-0.2,0.1
	c0.8-0.3-0.3,0.1-0.4,0.2c-0.7,0.3-1.5,0.5-2.3,0.6c-0.3,0.1-0.5,0.1-0.8,0.2c-0.4,0.1-0.6-0.1,0.4,0c-0.5,0-1.1,0.1-1.6,0.1
	c-0.8,0-1.6,0-2.5-0.1c-1-0.1,1.1,0.2,0.1,0c-0.2,0-0.4-0.1-0.5-0.1c-0.5-0.1-1-0.2-1.5-0.4c-0.4-0.1-0.7-0.2-1.1-0.4
	c-0.2-0.1-0.4-0.2-0.6-0.2c1,0.2,0.6,0.3,0.2,0.1c-0.8-0.4-1.6-0.8-2.4-1.3c-0.4-0.2-1.3-1.2-0.3-0.2c-0.3-0.3-0.6-0.5-0.9-0.7
	c-0.7-0.6-1.3-1.2-1.9-1.9c-0.1-0.1-0.2-0.3-0.3-0.4c0.9,0.9,0.3,0.4,0.1,0.1s-0.4-0.6-0.6-1s-0.4-0.7-0.6-1l-0.4-0.7
	c-0.2-0.4-0.2-1,0,0.1c-0.2-0.8-0.6-1.7-0.8-2.5c-0.1-0.4-0.2-0.8-0.2-1.2c-0.1-0.4,0-1,0,0.3c0-0.3-0.1-0.5-0.1-0.8
	c-0.1-0.9-0.1-1.8,0-2.7c0-0.2,0-0.4,0-0.5c0.1-0.9-0.2,0.9,0,0.3c0.1-0.5,0.2-1,0.3-1.4c0.2-0.8,0.6-1.7,0.8-2.5
	c-0.2,0.9-0.3,0.7-0.2,0.4c0.1-0.2,0.2-0.5,0.3-0.7c0.2-0.4,0.4-0.8,0.6-1.1c0.2-0.4,0.4-0.7,0.7-1.1c0.1-0.1,0.6-0.8,0.1-0.2
	c-0.5,0.6,0-0.1,0.1-0.2c0.5-0.7,1.1-1.3,1.8-1.8c0.3-0.3,0.7-0.5,1-0.8c-1,1,0,0,0.3-0.2c0.7-0.5,1.5-0.9,2.2-1.2
	c0.4-0.2,0.9-0.1-0.1,0c0.2,0,0.3-0.1,0.5-0.2c0.4-0.2,0.8-0.3,1.2-0.4c0.4-0.1,0.9-0.2,1.3-0.3c0.2,0,0.4-0.1,0.5-0.1
	c0.2,0,0.4-0.1,0.5-0.1c-0.7,0.1-0.9,0.1-0.5,0.1c0.9-0.1,1.7-0.1,2.6-0.1c0.4,0,0.9,0.1,1.3,0.1c0.8,0.1-0.3,0-0.4-0.1
	c0.3,0.1,0.6,0.1,0.9,0.2c1,0.2,1.9,0.5,2.9,0.8c0.3,0.1,0.5,0.4-0.4-0.2c0.3,0.2,0.5,0.3,0.8,0.4c0.4,0.2,0.8,0.4,1.2,0.7
	c0.4,0.3,0.9,0.6,1.3,0.8c0.3,0.2,0.5,0.5-0.3-0.2c0.2,0.2,0.4,0.3,0.6,0.5c0.7,0.6,1.4,1.3,2.1,2.1c0.1,0.2,0.3,0.4,0.4,0.5
	c-0.8-0.8-0.3-0.4-0.1-0.1c0.3,0.4,0.6,0.9,0.8,1.3c0.2,0.4,0.4,0.7,0.6,1.1c0.1,0.2,0.2,0.5,0.3,0.7c-0.6-1-0.2-0.5-0.1-0.1
	c0.3,0.9,0.6,1.8,0.8,2.8c0,0.2,0.1,0.6,0.1,0.8c0-0.2-0.1-0.4-0.1-0.7l0.1,0.5c0,0.5,0.1,1.1,0.1,1.6c0,2.3,2.1,4.6,4.5,4.5
	C185.4,151.5,187.4,149.6,187.4,147.1L187.4,147.1z"/>
</svg>
