<?xml version="1.0" encoding="utf-8"?>
<!-- Generator: Adobe Illustrator 21.0.0, SVG Export Plug-In . SVG Version: 6.00 Build 0)  -->
<svg version="1.1" id="图层_1" xmlns="http://www.w3.org/2000/svg" xmlns:xlink="http://www.w3.org/1999/xlink" x="0px" y="0px"
	 viewBox="0 0 200 200" style="enable-background:new 0 0 200 200;" xml:space="preserve">
<style type="text/css">
	.st0{fill:#444444;}
</style>
<path class="st0" d="M178.7,122.2c0,0,1.3,6.9-4.4,6.9c-5.8,0-5.4-4.8-5.4-7.6c-0.2-17.2-0.3-34.4,0.1-51.6
	c0.2-8.4-2.8-13.9-10.3-18.1C140.8,42,128,31.8,110.5,21.3c-7.2-4.3-13.7-4.3-20.9,0c-17.8,10.5-31.4,20.8-49.4,31
	c-6.7,3.8-9.8,9.2-9.7,16.9c0.1,20.9,0.1,41.9,0,62.8c0,7.7,3.1,12.1,9.8,15.9c18.2,10.3,32.2,20.7,50.2,31.4
	c6.4,3.8,12.2,3.9,18.6,0.2c19.3-11.2,38.8-22.3,58-33.7c1.6-0.9,5.2-0.4,6.6,1.6c1.9,2.6,1.2,7.2,0,7.9
	c-20.9,12.6-42,24.7-63.3,36.5c-7.5,4.2-15.6,3.1-23-1.1c-19.9-11.4-35.6-22.9-55.4-34.4c-8.6-5-10.7-12-10.7-22
	c-0.1-22.4-0.1-44.8,0-67.1c0-10.7,2.5-18.6,11.8-23.9c19.1-11,34-22,53.1-33.1c9.6-5.6,18.9-5.3,28.5,0.3
	c18.5,10.9,31.3,21.6,50,32.2c9.8,5.6,14.4,13.7,14.3,25.2c-0.2,19.5-0.1,60.6-0.1,60.6L178.7,122.2L178.7,122.2z M99.7,127.4H69.7
	v-9.9h29.7v-15.7H69.7l-0.5-10H91c-9-15.6-17.3-24.2-26-39.3c8.2-1.9,14-2.1,17.9,6.6c5.3,11.7,11.9,17.1,18.4,29.4
	c6.3-11.8,12.7-16.9,17.9-28.1c3.7-8,8.6-10.7,17.7-7.8c-8.4,14.4-16.7,23-25.8,38.5H131l0.8,10.1h-22.8v16.1h22.2l0.5,9.8h-23.1
	v25.6h-8.6L99.7,127.4z"/>
</svg>
