<?xml version="1.0" encoding="utf-8"?>
<!-- Generator: Adobe Illustrator 21.0.0, SVG Export Plug-In . SVG Version: 6.00 Build 0)  -->
<svg version="1.1" id="图层_1" xmlns="http://www.w3.org/2000/svg" xmlns:xlink="http://www.w3.org/1999/xlink" x="0px" y="0px"
	 viewBox="0 0 200 200" style="enable-background:new 0 0 200 200;" xml:space="preserve">
<style type="text/css">
	.st0{fill:#444444;}
</style>
<path class="st0" d="M113.9,104.5c3.4-0.2,6-3.2,5.8-6.6c-0.2-3.1-2.7-5.6-5.8-5.8H97.6l21.7-21.7c2.1-2.7,1.6-6.6-1-8.7
	c-2.2-1.8-5.4-1.8-7.6,0L82.7,89.4L55,61.7c-2.4-2.4-6.3-2.4-8.7,0c-2.4,2.4-2.4,6.3,0,8.7l21.5,21.7H51.5c-3.4,0-6.2,2.8-6.2,6.2
	c0,3.4,2.8,6.2,6.2,6.2c0,0,0,0,0,0h25v12h-25c-3.4-0.2-6.3,2.5-6.5,5.9c-0.2,3.4,2.5,6.3,5.9,6.5c0.2,0,0.4,0,0.6,0h25v29.8
	c-0.2,3.4,2.4,6.4,5.8,6.6c3.4,0.2,6.4-2.4,6.6-5.8c0-0.3,0-0.5,0-0.8v-29.8h12.5c3.4-0.2,6.1-3.1,5.9-6.5c-0.1-3.2-2.7-5.8-5.9-5.9
	H88.9v-12L113.9,104.5L113.9,104.5z"/>
<path class="st0" d="M58,43.5c-3,0-5.5-2.4-5.5-5.4c0,0,0,0,0,0V11c0-3,2.5-5.5,5.5-5.5c3,0,5.5,2.5,5.5,5.5v27
	C63.5,41,61.1,43.4,58,43.5C58.1,43.5,58,43.5,58,43.5z"/>
<path class="st0" d="M130.4,43.7c-3,0-5.5-2.4-5.5-5.4c0,0,0,0,0,0v-27c0-3,2.4-5.5,5.5-5.5c3,0,5.5,2.4,5.5,5.5v27
	C135.9,41.2,133.5,43.6,130.4,43.7C130.4,43.7,130.4,43.7,130.4,43.7z"/>
<path class="st0" d="M175.2,149.4c11.9-10.3,13.2-28.3,2.9-40.2c-10.3-11.9-28.3-13.2-40.2-2.9c-11.9,10.3-13.2,28.3-2.9,40.2
	c0.9,1,1.8,2,2.9,2.9c-15.2,7.2-24.8,22.5-24.8,39.3c0,3,2.4,5.5,5.5,5.5c3,0,5.5-2.4,5.5-5.4c0,0,0,0,0,0c0-17,13.1-31,30-32.4
	c1.7,0.1,3.4,0.1,5.1,0c16.9,1.3,29.9,15.4,30,32.4c0,3,2.5,5.5,5.5,5.5c3,0,5.5-2.5,5.5-5.5C200,171.9,190.3,156.6,175.2,149.4z
	 M158.8,145.2c-1.5-0.1-3-0.1-4.5,0c-8.7-1.2-15.2-8.6-15.2-17.4c0-9.7,7.8-17.5,17.5-17.5c9.7,0.1,17.5,8,17.4,17.6
	C173.9,136.7,167.4,144,158.8,145.2z"/>
<path class="st0" d="M88.5,194.5h-67C9.6,194.5,0,184.9,0,173V41.1c0-11.9,9.6-21.5,21.5-21.5h21c3,0,5.5,2.3,5.6,5.3
	c0.1,3-2.3,5.5-5.3,5.6c-0.1,0-0.1,0-0.2,0H24.1c-7.2,0-13.1,5.9-13.1,13.1v126.8c0,7.2,5.9,13.1,13.1,13.1h64.6
	c3.1,0,5.6,2.5,5.5,5.6C94,192.2,91.5,194.6,88.5,194.5z"/>
<path class="st0" d="M183.2,87.8c-3-0.1-5.4-2.6-5.4-5.6V43.7c0-7.2-5.9-13.1-13.1-13.1h-18.7c-3,0-5.5-2.3-5.6-5.3
	c-0.1-3,2.3-5.6,5.4-5.6c0,0,0.1,0,0.1,0h21.3c11.9,0,21.5,9.7,21.5,21.5v41.1c0,3-2.5,5.5-5.5,5.5
	C183.3,87.8,183.3,87.8,183.2,87.8z"/>
<path class="st0" d="M114.8,30.6h-41c-3,0-5.5-2.5-5.5-5.5s2.5-5.5,5.5-5.5h40.9c3,0,5.5,2.4,5.5,5.5
	C120.3,28.1,117.8,30.6,114.8,30.6z"/>
</svg>
