<?xml version="1.0" encoding="utf-8"?>
<!-- Generator: Adobe Illustrator 21.0.0, SVG Export Plug-In . SVG Version: 6.00 Build 0)  -->
<svg version="1.1" id="图层_1" xmlns="http://www.w3.org/2000/svg" xmlns:xlink="http://www.w3.org/1999/xlink" x="0px" y="0px"
	 viewBox="0 0 200 200" style="enable-background:new 0 0 200 200;" xml:space="preserve">
<style type="text/css">
	.st0{fill:#444444;}
</style>
<path class="st0" d="M102.8,149.3C102.8,149.3,102.8,149.3,102.8,149.3c-1.5,0-3,0-4.4,0c-25.5-0.5-49.5-5.2-67.5-13.2
	c-19.1-8.5-29.5-19.9-29.3-32.2c0.2-11.9,10.5-22.8,29-30.5c17.3-7.2,40.4-11.2,65-11.2c1.5,0,2.9,0,4.4,0
	c25.5,0.5,49.5,5.2,67.5,13.2c19.1,8.5,29.5,19.9,29.3,32.2c-0.2,11.9-10.5,22.8-29,30.5C150.5,145.3,127.4,149.3,102.8,149.3z
	 M95.7,70.4c-23.5,0-45.5,3.8-61.9,10.6c-15.1,6.3-23.8,14.7-24,23c-0.2,8.6,8.7,17.6,24.4,24.5c17,7.6,39.9,12,64.3,12.5
	c1.4,0,2.8,0,4.2,0c0,0,0,0,0,0c23.5,0,45.5-3.8,61.9-10.6c15.1-6.3,23.8-14.7,24-23c0.2-8.6-8.7-17.6-24.4-24.6
	c-17-7.6-39.9-12-64.3-12.5C98.5,70.4,97.1,70.4,95.7,70.4z"/>
<path class="st0" d="M140.1,190.9c-10.8,0-24-5.9-38-17.1c-13.9-11.1-27.4-26.3-39.1-44C48.9,108.4,39.1,86,35.5,66.7
	c-3.9-20.6-0.3-35.6,9.9-42.4c3.7-2.4,8.1-3.7,13-3.7c10.8,0,24,5.9,38,17.1c13.9,11.1,27.4,26.3,39.1,44
	c14.1,21.3,23.8,43.7,27.5,63.1c3.9,20.6,0.3,35.6-9.9,42.4C149.4,189.7,145,190.9,140.1,190.9z M58.4,28.8c-3.3,0-6.1,0.8-8.5,2.3
	c-7.2,4.8-9.5,17.2-6.4,34c3.4,18.3,12.7,39.6,26.2,60c11.3,17,24.2,31.6,37.4,42.1c12.4,9.9,24.1,15.3,32.9,15.3
	c3.3,0,6.1-0.8,8.5-2.3c7.2-4.8,9.5-17.2,6.4-34c-3.4-18.3-12.7-39.6-26.2-60c-11.3-17-24.2-31.6-37.4-42.1
	C78.9,34.3,67.2,28.8,58.4,28.8z"/>
<path class="st0" d="M63.1,194c-4,0-7.7-0.9-11-2.7c-10.8-5.9-15.5-20.7-13.3-41.5c2.1-19.6,10-42.7,22.3-65.1
	c13.4-24.4,30.7-45.1,47.4-56.9c1.9-1.3,4.4-0.9,5.7,1c1.3,1.9,0.9,4.4-1,5.7C97.5,45.6,81.2,65.4,68.3,88.7
	c-11.8,21.4-19.3,43.4-21.3,62c-1.8,17.1,1.5,29.2,9.1,33.4c7.6,4.2,19.6,0.4,33.1-10.2c14.6-11.6,29.2-29.7,40.9-51.1
	C143,99.4,150.9,75,151.8,55.8c0.1-2.3,2-4,4.3-3.9c2.3,0.1,4,2,3.9,4.3c-1,20.4-9.3,46.1-22.7,70.5c-12.3,22.4-27.6,41.4-43.1,53.6
	C82.9,189.4,72.2,194,63.1,194z"/>
<path class="st0" d="M121.5,27.7c0,11.4,9.3,20.7,20.7,20.7s20.7-9.3,20.7-20.7S153.6,7,142.2,7S121.5,16.3,121.5,27.7z"/>
</svg>
