<?xml version="1.0" encoding="utf-8"?>
<!-- Generator: Adobe Illustrator 21.0.0, SVG Export Plug-In . SVG Version: 6.00 Build 0)  -->
<svg version="1.1" id="图层_1" xmlns="http://www.w3.org/2000/svg" xmlns:xlink="http://www.w3.org/1999/xlink" x="0px" y="0px"
	 viewBox="0 0 200 200" style="enable-background:new 0 0 200 200;" xml:space="preserve">
<style type="text/css">
	.st0{fill:#444444;}
</style>
<path class="st0" d="M100.5,199.6L23,200c-10.6,0-18.7-8.7-18.7-20V20.4c0-11.2,8.7-20,18.7-20h149.7c10.6,0,18.7,8.7,18.7,20v69.1
	c0,3.7-2.5,6.2-6.2,6.2c-3.7,0-6.2-2.5-6.2-6.2V20.4c0-4.4-3.1-7.5-6.2-7.5H23c-3.1,0-6.2,3.1-6.2,7.5V180c0,4.4,3.1,7.5,6.2,7.5
	l77.5-0.4c3.7,0,6.2,2.5,6.2,6.2C106.7,197.1,104.2,199.6,100.5,199.6z"/>
<path class="st0" d="M137.9,62.8H46c-3.7,0-6.2-2.5-6.2-6.2s2.5-6.2,6.2-6.2h91.8c3.7,0,6.2,2.5,6.2,6.2S141.6,62.8,137.9,62.8
	L137.9,62.8z M106.2,100.2H47.9c-3.7,0-6.2-2.5-6.2-6.2s2.5-6.2,6.2-6.2h58.3c3.7,0,6.2,2.5,6.2,6.2
	C112.5,97.7,110,100.2,106.2,100.2z M103.1,137.6H47.9c-3.7,0-6.2-2.5-6.2-6.2c0-3.7,2.5-6.2,6.2-6.2h55.2c3.7,0,6.2,2.5,6.2,6.2
	C109.3,135.1,106.8,137.6,103.1,137.6L103.1,137.6z"/>
<path class="st0" d="M156.4,151.1c-1.3,0-2.7-0.5-3.7-1.4l-29.8-27.8c-1-0.9-1.5-2.1-1.5-3.5c0-1.3,0.6-2.5,1.5-3.5
	c1-0.9,2.3-1.4,3.7-1.4c1.4,0,2.7,0.5,3.7,1.4l26.1,24.4l26-24.4c1-0.9,2.3-1.4,3.7-1.4c1.4,0,2.7,0.5,3.7,1.4
	c1,0.9,1.5,2.2,1.5,3.5c0,1.3-0.6,2.5-1.5,3.5l-29.8,27.8C159,150.6,157.7,151.1,156.4,151.1L156.4,151.1z"/>
<path class="st0" d="M181.7,151.1H131c-2.9,0-5.2-2.2-5.2-4.9s2.3-4.9,5.2-4.9h50.8c2.8,0.1,5,2.3,5,4.9S184.5,151,181.7,151.1z
	 M181.7,173.8H131c-2.9,0-5.2-2.2-5.2-4.9c0-2.7,2.3-4.9,5.2-4.9h50.8c2.8,0.1,5,2.3,5,4.9C186.8,171.6,184.5,173.7,181.7,173.8z"/>
<path class="st0" d="M156.4,200c-2.9,0-5.2-2.2-5.2-4.9v-48.9c0.1-2.6,2.4-4.7,5.2-4.7c2.8,0,5.1,2.1,5.2,4.7v48.9
	C161.6,197.8,159.2,200,156.4,200z"/>
</svg>
