<?xml version="1.0" encoding="utf-8"?>
<!-- Generator: Adobe Illustrator 21.0.0, SVG Export Plug-In . SVG Version: 6.00 Build 0)  -->
<svg version="1.1" id="图层_1" xmlns="http://www.w3.org/2000/svg" xmlns:xlink="http://www.w3.org/1999/xlink" x="0px" y="0px"
	 viewBox="0 0 200 200" style="enable-background:new 0 0 200 200;" xml:space="preserve">
<style type="text/css">
	.st0{fill:#444444;}
</style>
<path class="st0" d="M197.5,80.6l-78.8-61.3c-11.5-9.1-25.9-9.2-37.3,0L2.5,80.6c-2.6,2-3,6-1,8.6c2,2.5,5.7,3.3,8.2,1.4l15.3-11.9
	v71.8c0,23.7,10,36.9,34,36.9h82.7c23.9,0,33.2-13.6,33.2-37.4V78.6l15.4,12c1.1,0.8,2.3,1.2,3.6,1.2c1.7,0,3.5-1,4.6-2.4
	C200.5,86.9,200.1,82.6,197.5,80.6L197.5,80.6z M124.9,174.9H75v-50h50L124.9,174.9L124.9,174.9z M162.5,149.8
	c0,15.6-6,25.2-20.7,25.2h-4.3v-50.6c0-0.5-0.5-11.9-11.8-11.9l-51.4,0c0.4,0-11.8-0.3-11.8,11.8v50.6H59c-13.1,0-21.6-10-21.6-25
	l0-80.8l51.2-39.9c7.2-5.7,15.5-5.7,22.8,0l51,39.7L162.5,149.8L162.5,149.8z M137.4,124.3L137.4,124.3
	C137.4,124.4,137.4,124.4,137.4,124.3z"/>
</svg>
