<?xml version="1.0" encoding="utf-8"?>
<!-- Generator: Adobe Illustrator 21.0.0, SVG Export Plug-In . SVG Version: 6.00 Build 0)  -->
<svg version="1.1" id="图层_1" xmlns="http://www.w3.org/2000/svg" xmlns:xlink="http://www.w3.org/1999/xlink" x="0px" y="0px"
	 viewBox="0 0 200 200" style="enable-background:new 0 0 200 200;" xml:space="preserve">
<style type="text/css">
	.st0{fill:#D10100;}
</style>
<path class="st0" d="M189.8,105.3l-4.9-4.9c-3-2.6-6.4-4.1-10.5-4.1s-7.5,1.5-10.5,4.1l-54.4,54l-15.8,41.3l41.3-15.4l54.8-54.4
	C195.4,120.3,195.4,110.9,189.8,105.3z M130.9,172.8l-21.8,7.9l8.3-21.8l0.8-0.8l13.5,13.5L130.9,172.8z M137.6,166l-13.5-13.5
	l35.6-35.6l13.5,13.5L137.6,166z M183.8,119.9l-4.5,4.5l-13.5-13.5l4.5-4.5c1.1-1.1,2.6-1.9,4.5-1.9c1.5,0,3,0.8,4.5,1.9l4.9,4.9
	C186,113.5,186,117.3,183.8,119.9z M193.9,190.4v-1.1l-0.4-2.3c-2.3-15.4-7.1-29.3-14.6-41.6l-7.9,7.5c6,10.5,10.1,22.1,12,34.5
	l0.4,1.5h0.4v1.5c0,3,2.3,5.3,5.3,5.3C191.7,195.6,193.9,193.4,193.9,190.4z M135.4,107.1l1.9-1.5c12.8-10.9,20.3-27,20.3-43.5
	c0-31.9-25.9-57.8-57.8-57.8c-31.5,0-57.4,25.9-57.4,57.4c0,16.9,7.5,32.6,20.3,43.5l1.9,1.5l-2.3,1.5c-30,14.3-51,43.5-55.9,78.8
	L6,189.6v0.8c0,3,2.3,5.3,5.3,5.3s5.3-2.3,5.3-5.3v-0.8l0.4-2.3c5.3-34.1,28.1-63,58.5-73.1h0.8l0.8,0.4c7.5,3.4,15.4,3.4,23.6,3.4
	c8.3,0,16.1,0,23.6-3.4l0.8-0.4h0.8c4.1,1.5,7.9,3,12,5.3l7.1-7.9c-1.9-1.1-4.1-2.3-6-3L135.4,107.1L135.4,107.1z M123.8,104.1
	c-4.1,2.3-9,3-13.5,4.1c-3.4,0.8-6.8,1.1-10.1,1.1c-3.4,0-6.8-0.4-10.1-1.1c-4.5-1.1-9-2.6-12.8-4.9c-15-8.3-24.4-24-24.4-41.3
	c0-25.9,21-47.3,47.3-47.3s47.3,21.4,47.3,47.3C147.4,79,138.8,95.9,123.8,104.1L123.8,104.1z"/>
</svg>
