<?xml version="1.0" standalone="no"?><!DOCTYPE svg PUBLIC "-//W3C//DTD SVG 1.1//EN" "http://www.w3.org/Graphics/SVG/1.1/DTD/svg11.dtd"><svg t="1553564338766" class="icon" style="" viewBox="0 0 1024 1024" version="1.1" xmlns="http://www.w3.org/2000/svg" p-id="814" xmlns:xlink="http://www.w3.org/1999/xlink" width="200" height="200"><defs><style type="text/css"></style></defs><path d="M789.333333 609.28V366.933333c0-19.626667-16.213333-35.84-34.986666-35.84h-477.866667c-19.626667 0-34.986667 16.213333-34.986667 35.84v483.84c0 19.626667 16.213333 35.84 34.986667 35.84h412.16c19.626667 0 100.693333-64.853333 100.693333-84.48V609.28z" fill="#E8F7FD" p-id="815"></path><path d="M789.333333 809.813333V381.44c0-8.533333-3.413333-16.213333-7.68-22.186667-70.826667 313.173333-445.44 465.066667-540.16 513.706667 5.973333 11.946667 17.92 20.48 32.426667 20.48h414.72c19.626667 0 100.693333-64 100.693333-83.626667z" fill="#D2F0FD" p-id="816"></path><path d="M485.546667 901.12H241.493333c-26.453333 0-48.64-21.333333-48.64-47.786667V394.24c0-5.973333 4.266667-10.24 10.24-10.24s10.24 4.266667 10.24 10.24V853.333333c0 15.36 12.8 27.306667 27.306667 27.306667h244.053333c5.973333 0 10.24 4.266667 10.24 10.24s-3.413333 10.24-9.386666 10.24zM203.093333 370.346667c-5.973333 0-10.24-4.266667-10.24-10.24v-15.36c0-26.453333 21.333333-47.786667 48.64-47.786667h2.56c5.973333 0 10.24 4.266667 10.24 10.24s-4.266667 10.24-10.24 10.24h-2.56c-15.36 0-27.306667 11.946667-27.306666 27.306667v15.36c-0.853333 5.12-5.12 10.24-11.093334 10.24zM792.746667 609.28c-5.973333 0-10.24-4.266667-10.24-10.24V344.746667c0-15.36-12.8-27.306667-27.306667-27.306667H285.013333c-5.973333 0-10.24-4.266667-10.24-10.24s4.266667-10.24 10.24-10.24h470.186667c26.453333 0 48.64 21.333333 48.64 47.786667v254.293333c0 5.12-5.12 10.24-11.093333 10.24z" fill="#2087F0" p-id="817"></path><path d="M543.573333 553.813333H307.2c-5.973333 0-10.24-4.266667-10.24-10.24s4.266667-10.24 10.24-10.24h236.373333c5.973333 0 10.24 4.266667 10.24 10.24 0 5.12-5.12 10.24-10.24 10.24zM501.76 657.92H307.2c-5.973333 0-10.24-4.266667-10.24-10.24s4.266667-10.24 10.24-10.24h194.56c5.973333 0 10.24 4.266667 10.24 10.24 0 5.12-4.266667 10.24-10.24 10.24zM432.64 755.2H307.2c-5.973333 0-10.24-4.266667-10.24-10.24s4.266667-10.24 10.24-10.24h125.44c5.973333 0 10.24 4.266667 10.24 10.24 0 5.12-5.12 10.24-10.24 10.24zM792.746667 449.706667H314.026667c-5.973333 0-10.24-4.266667-10.24-10.24s4.266667-10.24 10.24-10.24H793.6c5.973333 0 10.24 4.266667 10.24 10.24 0 5.12-5.12 10.24-11.093333 10.24zM812.373333 901.12H149.333333c-5.973333 0-10.24-4.266667-10.24-10.24s4.266667-10.24 10.24-10.24h663.893334c5.973333 0 10.24 4.266667 10.24 10.24s-5.12 10.24-11.093334 10.24zM116.053333 901.12H85.333333c-5.973333 0-10.24-4.266667-10.24-10.24s4.266667-10.24 10.24-10.24h31.573334c5.973333 0 10.24 4.266667 10.24 10.24s-5.12 10.24-11.093334 10.24zM876.373333 901.12h-24.746666c-5.973333 0-10.24-4.266667-10.24-10.24s4.266667-10.24 10.24-10.24h24.746666c5.973333 0 10.24 4.266667 10.24 10.24s-4.266667 10.24-10.24 10.24zM358.4 374.613333c-19.626667 0-35.84-16.213333-35.84-35.84v-75.093333c0-19.626667 16.213333-35.84 35.84-35.84 19.626667 0 35.84 16.213333 35.84 35.84v75.093333c0.853333 19.626667-15.36 35.84-35.84 35.84z" fill="#2087F0" p-id="818"></path><path d="M358.4 247.466667c-8.533333 0-15.36 6.826667-15.36 15.36v75.093333c0 8.533333 6.826667 15.36 15.36 15.36s15.36-6.826667 15.36-15.36v-75.093333c0.853333-7.68-6.826667-15.36-15.36-15.36z" fill="#E8F7FD" p-id="819"></path><path d="M668.16 779.093333m-128.853333 0a128.853333 128.853333 0 1 0 257.706666 0 128.853333 128.853333 0 1 0-257.706666 0Z" fill="#FFFFFF" p-id="820"></path><path d="M664.746667 636.586667c-72.533333 0-132.266667 58.88-132.266667 132.266666s58.88 132.266667 132.266667 132.266667 132.266667-59.733333 132.266666-132.266667-59.733333-132.266667-132.266666-132.266666z m0 285.013333C580.266667 921.6 512 853.333333 512 768.853333s68.266667-152.746667 152.746667-152.746666 152.746667 68.266667 152.746666 152.746666c0 84.48-68.266667 152.746667-152.746666 152.746667z" fill="#2087F0" p-id="821"></path><path d="M651.093333 845.653333c-2.56 0-5.12-0.853333-6.826666-2.56l-66.56-58.88c-4.266667-3.413333-4.266667-10.24-0.853334-14.506666s10.24-4.266667 14.506667-0.853334l58.026667 52.053334 79.36-102.4c3.413333-4.266667 10.24-5.12 14.506666-1.706667 4.266667 3.413333 5.12 10.24 1.706667 14.506667l-85.333333 110.08c-1.706667 2.56-4.266667 3.413333-7.68 4.266666h-0.853334z" fill="#2087F0" p-id="822"></path><path d="M699.733333 116.053333c-7.68 0-14.506667 5.973333-14.506666 14.506667 0 7.68 5.973333 14.506667 14.506666 14.506667s14.506667-5.973333 14.506667-14.506667c-0.853333-8.533333-6.826667-14.506667-14.506667-14.506667z m0 41.813334c-15.36 0-28.16-12.8-28.16-28.16 0-15.36 12.8-28.16 28.16-28.16 15.36 0 28.16 12.8 28.16 28.16-0.853333 16.213333-12.8 28.16-28.16 28.16z" fill="#D2E8FD" p-id="823"></path><path d="M860.16 322.56h-11.946667v-11.946667c0-3.413333-2.56-5.973333-5.973333-5.973333-3.413333 0-5.973333 2.56-5.973333 5.973333v11.946667h-11.946667c-3.413333 0-5.973333 2.56-5.973333 5.973333s2.56 5.973333 5.973333 5.973334H836.266667v11.946666c0 3.413333 2.56 5.973333 5.973333 5.973334 3.413333 0 5.973333-2.56 5.973333-5.973334v-11.946666h11.946667c3.413333 0 5.973333-2.56 5.973333-5.973334s-2.56-5.973333-5.973333-5.973333zM241.493333 203.946667h-11.946666v-11.946667c0-3.413333-2.56-5.973333-5.973334-5.973333-3.413333 0-5.973333 2.56-5.973333 5.973333v11.946667h-11.946667c-3.413333 0-5.973333 2.56-5.973333 5.973333 0 3.413333 2.56 5.973333 5.973333 5.973333h11.946667v11.946667c0 3.413333 2.56 5.973333 5.973333 5.973333 3.413333 0 5.973333-2.56 5.973334-5.973333v-11.946667h11.946666c3.413333 0 5.973333-2.56 5.973334-5.973333 0-3.413333-2.56-5.973333-5.973334-5.973333z" fill="#E8F7FD" p-id="824"></path><path d="M783.36 195.413333c0 7.68 5.973333 13.653333 13.653333 13.653334 7.68 0 13.653333-5.973333 13.653334-13.653334 0-7.68-5.973333-13.653333-13.653334-13.653333-7.68 0-13.653333 5.973333-13.653333 13.653333z" fill="#D2F0FD" p-id="825"></path><path d="M325.12 140.8a10.24 10.24 0 1 0 20.48 0 10.24 10.24 0 1 0-20.48 0Z" fill="#D2F0FD" p-id="826"></path><path d="M103.253333 483.84h-14.506666V469.333333c0-3.413333-3.413333-6.826667-6.826667-6.826666s-6.826667 3.413333-6.826667 6.826666v14.506667H60.586667c-3.413333 0-6.826667 3.413333-6.826667 6.826667s3.413333 6.826667 6.826667 6.826666h14.506666V512c0 3.413333 3.413333 6.826667 6.826667 6.826667s6.826667-3.413333 6.826667-6.826667v-14.506667H102.4c3.413333 0 6.826667-3.413333 6.826667-6.826666s-2.56-6.826667-5.973334-6.826667z" fill="#D2F0FD" p-id="827"></path><path d="M533.52315 153.173988a13.653333 13.653333 0 1 0 26.95441-4.371939 13.653333 13.653333 0 1 0-26.95441 4.371939Z" fill="#E8F7FD" p-id="828"></path><path d="M116.053333 282.453333c-7.68 0-14.506667 5.973333-14.506666 14.506667 0 7.68 5.973333 14.506667 14.506666 14.506667s14.506667-5.973333 14.506667-14.506667c0-7.68-6.826667-14.506667-14.506667-14.506667z m0 41.813334c-15.36 0-28.16-12.8-28.16-28.16 0-15.36 12.8-28.16 28.16-28.16s28.16 12.8 28.16 28.16c0 16.213333-12.8 28.16-28.16 28.16zM491.52 230.4c-1.706667 0-3.413333 1.706667-3.413333 3.413333v17.066667c0 1.706667 1.706667 3.413333 3.413333 3.413333s3.413333-1.706667 3.413333-3.413333v-17.066667c0-1.706667-1.706667-3.413333-3.413333-3.413333z m0-44.373333c-1.706667 0-3.413333 1.706667-3.413333 3.413333v17.066667c0 1.706667 1.706667 3.413333 3.413333 3.413333s3.413333-1.706667 3.413333-3.413333v-17.066667c0-1.706667-1.706667-3.413333-3.413333-3.413333z m30.72 30.72h-17.066667c-1.706667 0-3.413333 1.706667-3.413333 3.413333s1.706667 3.413333 3.413333 3.413333h17.066667c1.706667 0 3.413333-1.706667 3.413333-3.413333s-1.706667-3.413333-3.413333-3.413333z m-40.96 3.413333c0-1.706667-1.706667-3.413333-3.413333-3.413333h-17.066667c-1.706667 0-3.413333 1.706667-3.413333 3.413333s1.706667 3.413333 3.413333 3.413333h17.066667c1.706667 0.853333 3.413333-0.853333 3.413333-3.413333z m-2.56 7.68l-11.946667 11.946667c-0.853333 0.853333-0.853333 1.706667-0.853333 2.56 0 0.853333 0 1.706667 0.853333 2.56 0.853333 0.853333 1.706667 0.853333 2.56 0.853333 0.853333 0 1.706667 0 2.56-0.853333l11.946667-11.946667c1.706667-1.706667 1.706667-3.413333 0-5.12-0.853333-1.706667-3.413333-1.706667-5.12 0z m22.186667-13.653333c0.853333 0 1.706667 0 2.56-0.853334l11.946666-11.946666c0.853333-0.853333 0.853333-1.706667 0.853334-2.56 0-0.853333 0-1.706667-0.853334-2.56-1.706667-1.706667-3.413333-1.706667-5.12 0l-11.946666 11.946666c-1.706667 1.706667-1.706667 3.413333 0 5.12 0.853333 0.853333 1.706667 0.853333 2.56 0.853334z m2.56 13.653333c-0.853333-0.853333-1.706667-0.853333-2.56-0.853333s-1.706667 0-2.56 0.853333c-1.706667 1.706667-1.706667 3.413333 0 5.12l11.946666 11.946667c0.853333 0.853333 1.706667 0.853333 2.56 0.853333 0.853333 0 1.706667 0 2.56-0.853333 0.853333-0.853333 0.853333-1.706667 0.853334-2.56 0-0.853333 0-1.706667-0.853334-2.56L503.466667 227.84zM471.893333 196.266667c-1.706667-1.706667-3.413333-1.706667-5.12 0-0.853333 0.853333-0.853333 1.706667-0.853333 2.56 0 0.853333 0 1.706667 0.853333 2.56l11.946667 11.946666c0.853333 0.853333 1.706667 0.853333 2.56 0.853334 0.853333 0 1.706667 0 2.56-0.853334 1.706667-1.706667 1.706667-3.413333 0-5.12L471.893333 196.266667zM650.24 359.253333H605.866667c-2.56 0-4.266667-1.706667-4.266667-3.413333v-110.933333c0-1.706667 1.706667-3.413333 4.266667-3.413334h44.373333c2.56 0 4.266667 1.706667 4.266667 3.413334v110.933333c0 1.706667-1.706667 3.413333-4.266667 3.413333zM934.4 494.08c-2.56 0-3.413333 1.706667-3.413333 3.413333v17.066667c0 2.56 1.706667 3.413333 3.413333 3.413333s3.413333-1.706667 3.413333-3.413333v-17.066667c0.853333-1.706667-0.853333-3.413333-3.413333-3.413333zM934.4 448c-2.56 0-3.413333 1.706667-3.413333 3.413333v17.066667c0 2.56 1.706667 3.413333 3.413333 3.413333s3.413333-1.706667 3.413333-3.413333v-17.066667c0.853333-1.706667-0.853333-3.413333-3.413333-3.413333zM965.973333 479.573333h-17.066666c-2.56 0-3.413333 1.706667-3.413334 3.413334s1.706667 3.413333 3.413334 3.413333h17.066666c2.56 0 3.413333-1.706667 3.413334-3.413333 0.853333-1.706667-0.853333-3.413333-3.413334-3.413334zM924.16 483.84c0-2.56-1.706667-3.413333-3.413333-3.413333h-17.066667c-2.56 0-3.413333 1.706667-3.413333 3.413333s1.706667 3.413333 3.413333 3.413333h17.066667c1.706667 0 3.413333-1.706667 3.413333-3.413333zM921.6 490.666667l-11.946667 11.946666c-0.853333 0.853333-0.853333 1.706667-0.853333 2.56s0 1.706667 0.853333 2.56c0.853333 0.853333 1.706667 0.853333 2.56 0.853334 0.853333 0 1.706667 0 2.56-0.853334l11.946667-11.946666c1.706667-1.706667 1.706667-4.266667 0-5.12-0.853333-0.853333-3.413333-0.853333-5.12 0zM944.64 477.013333c0.853333 0 1.706667 0 2.56-0.853333l11.946667-11.946667c0.853333-0.853333 0.853333-1.706667 0.853333-2.56 0-0.853333 0-1.706667-0.853333-2.56-1.706667-1.706667-4.266667-1.706667-5.12 0l-11.946667 11.946667c-1.706667 1.706667-1.706667 4.266667 0 5.12 0.853333 0.853333 1.706667 0.853333 2.56 0.853333zM947.2 490.666667c-0.853333-0.853333-1.706667-0.853333-2.56-0.853334s-1.706667 0-2.56 0.853334c-1.706667 1.706667-1.706667 4.266667 0 5.12l11.946667 11.946666c0.853333 0.853333 1.706667 0.853333 2.56 0.853334s1.706667 0 2.56-0.853334c0.853333-0.853333 0.853333-1.706667 0.853333-2.56 0-0.853333 0-1.706667-0.853333-2.56l-11.946667-11.946666zM914.773333 458.24c-1.706667-1.706667-4.266667-1.706667-5.12 0-0.853333 0.853333-0.853333 1.706667-0.853333 2.56s0 1.706667 0.853333 2.56l11.946667 11.946667c0.853333 0.853333 1.706667 0.853333 2.56 0.853333s1.706667 0 2.56-0.853333c1.706667-1.706667 1.706667-4.266667 0-5.12l-11.946667-11.946667z" fill="#E8F7FD" p-id="829"></path><path d="M629.76 247.466667c-8.533333 0-14.506667 6.826667-14.506667 15.36v74.24c0 8.533333 6.826667 15.36 14.506667 15.36 8.533333 0 14.506667-6.826667 14.506667-15.36v-74.24c0.853333-8.533333-5.973333-15.36-14.506667-15.36z m0 125.44c-18.773333 0-34.986667-16.213333-34.986667-35.84v-74.24c0-19.626667 15.36-35.84 34.986667-35.84 18.773333 0 34.986667 16.213333 34.986667 35.84v74.24c0 19.626667-15.36 35.84-34.986667 35.84z" fill="#2087F0" p-id="830"></path><path d="M265.386667 616.106667c-5.973333 0-10.24-4.266667-10.24-10.24V494.08c0-5.973333 4.266667-10.24 10.24-10.24s10.24 4.266667 10.24 10.24V605.866667c0.853333 5.973333-4.266667 10.24-10.24 10.24zM265.386667 418.986667c-5.973333 0-10.24-4.266667-10.24-10.24v-31.573334c0-17.92 15.36-32.426667 33.28-32.426666H307.2c5.973333 0 10.24 4.266667 10.24 10.24s-4.266667 10.24-10.24 10.24h-18.773333c-6.826667 0-12.8 5.12-12.8 11.946666v31.573334c0.853333 5.973333-4.266667 10.24-10.24 10.24z" fill="#FFFFFF" p-id="831"></path></svg>