<?xml version="1.0" standalone="no"?><!DOCTYPE svg PUBLIC "-//W3C//DTD SVG 1.1//EN" "http://www.w3.org/Graphics/SVG/1.1/DTD/svg11.dtd"><svg t="1623391136266" class="icon" viewBox="0 0 1024 1024" version="1.1" xmlns="http://www.w3.org/2000/svg" p-id="5705" xmlns:xlink="http://www.w3.org/1999/xlink" width="200" height="200"><defs><style type="text/css"></style></defs><path d="M512 0c282.762 0 512 229.238 512 512s-229.238 512-512 512S0 794.762 0 512 229.238 0 512 0zM403.345 205.16c-24.465-4.152-45.111 4.179-77.298 25.046l-9.16 5.95-8.386 5.259c-63.71 39.41-36.809 201.617 67.113 353.778C479.26 746.911 623.394 835.695 686.218 796.95c4.013-2.463 19.54-11.541 21.31-12.62 27.012-16.052 42.178-29.115 50.038-48.018 10.572-25.323 2.491-53.69-24.908-85.711-44.253-51.754-77.768-63.986-115.684-46.661a158.305 158.305 0 0 0-17.353 9.326l-16.771 10.406c-12.731 7.833-51.643-29.419-98.249-97.473-45.997-67.308-65.73-115.768-54.106-122.991 1.135-0.72 13.312-8.081 16.772-10.295 47.657-29.973 55.794-62.99 18.764-132.595-17.491-32.906-38.276-50.978-62.686-55.157z" fill="#8A8A8A" p-id="5706"></path></svg>